<?xml version="1.0" standalone="no"?>
<!DOCTYPE svg PUBLIC "-//W3C//DTD SVG 20010904//EN"
 "http://www.w3.org/TR/2001/REC-SVG-20010904/DTD/svg10.dtd">
<svg version="1.0" xmlns="http://www.w3.org/2000/svg"
 width="728.000000pt" height="256.000000pt" viewBox="0 0 728.000000 256.000000"
 preserveAspectRatio="xMidYMid meet">

<g transform="translate(0.000000,256.000000) scale(0.100000,-0.100000)"
fill="#000000" stroke="none">
<path d="M90 1838 c0 -649 2 -710 19 -794 55 -266 223 -529 486 -762 164 -145
331 -244 447 -266 118 -22 362 117 584 333 223 217 367 453 420 686 16 73 17
146 18 790 l1 710 -987 3 -988 2 0 -702z m1019 667 c-3 -2 -225 -5 -493 -5
l-487 -1 3 -314 c2 -173 0 -315 -4 -315 -5 0 -8 144 -8 320 l0 320 497 0 c273
0 494 -2 492 -5z m174 -2 c-29 -2 -78 -2 -110 0 -32 2 -8 3 52 3 61 0 87 -1
58 -3z m555 0 c-93 -2 -243 -2 -335 0 -93 1 -17 3 167 3 184 0 260 -2 168 -3z
m-740 -78 c2 -25 11 -34 50 -52 l47 -22 22 21 c39 37 74 -2 37 -43 -14 -16
-14 -22 3 -68 16 -47 20 -51 50 -51 29 0 33 -3 33 -25 0 -22 -4 -25 -34 -25
-32 0 -35 -3 -51 -51 -17 -49 -16 -51 3 -72 35 -39 0 -66 -40 -30 -17 15 -21
15 -54 0 -19 -9 -41 -17 -49 -17 -10 0 -15 -11 -15 -34 0 -22 -6 -36 -16 -40
-22 -9 -30 -1 -38 34 -3 17 -14 33 -23 36 -10 3 -32 12 -50 19 -27 12 -33 12
-43 -1 -16 -19 -49 -18 -57 1 -3 9 2 24 11 34 15 16 14 21 -6 69 -19 45 -26
52 -49 52 -15 0 -29 6 -32 13 -8 23 5 37 34 37 23 0 30 5 35 28 4 15 14 39 22
54 14 24 14 28 -1 43 -35 35 -4 73 33 40 18 -16 22 -16 72 3 40 15 53 25 54
41 1 11 2 26 3 32 0 6 11 9 24 7 16 -2 23 -11 25 -33z m-688 -26 c30 -22 39
-34 32 -41 -8 -8 -22 -4 -50 15 -44 31 -57 33 -66 12 -7 -19 -36 -20 -36 -1 0
22 29 46 54 46 13 0 42 -14 66 -31z m198 19 c20 -20 14 -112 -11 -181 -29 -79
-65 -142 -116 -201 -31 -36 -42 -42 -50 -32 -8 10 -6 18 9 31 24 22 103 150
126 203 36 87 36 162 -1 162 -24 0 -94 -69 -141 -139 -34 -51 -45 -61 -50 -47
-9 25 23 79 83 142 67 70 121 92 151 62z m1010 -2 c36 -19 66 -52 53 -60 -5
-4 -26 5 -47 19 -43 29 -47 30 -64 10 -20 -24 -43 -19 -34 8 12 39 45 48 92
23z m230 -18 c28 -60 -28 -219 -122 -347 -34 -45 -51 -60 -58 -53 -8 8 -3 23
18 52 98 135 157 279 135 326 -9 20 -16 24 -34 19 -33 -10 -94 -72 -134 -137
-34 -55 -53 -66 -53 -30 0 9 19 42 43 73 91 121 174 161 205 97z m-1523 -68
c0 -18 -6 -26 -21 -28 -26 -4 -40 24 -23 45 18 21 44 11 44 -17z m1233 13 c5
-10 7 -24 5 -30 -6 -18 -42 -16 -49 2 -15 38 26 63 44 28z m-1041 -56 c30 -43
34 -59 23 -77 -10 -17 -9 -19 -44 43 -24 42 -27 67 -8 67 4 0 17 -15 29 -33z
m1238 -12 c19 -31 24 -49 17 -60 -7 -14 -15 -8 -41 34 -30 46 -34 71 -11 71 5
0 21 -20 35 -45z m-1413 -16 c6 -17 21 -51 34 -76 29 -53 29 -53 5 -53 -17 0
-55 69 -76 138 -10 36 24 28 37 -9z m138 0 c0 -5 -9 -9 -20 -9 -22 0 -23 1
-14 24 5 13 9 14 20 5 8 -6 14 -15 14 -20z m1118 -51 c37 -75 38 -78 16 -78
-17 0 -27 12 -44 53 -35 80 -42 109 -25 105 8 -2 31 -38 53 -80z m4 56 c-7
-12 -11 -13 -17 -4 -4 7 -2 16 6 21 18 11 23 4 11 -17z m102 10 c9 -23 8 -24
-14 -24 -11 0 -20 2 -20 4 0 12 13 36 20 36 4 0 11 -7 14 -16z m-1330 -9 c-4
-8 -10 -15 -15 -15 -5 0 -9 7 -9 15 0 8 7 15 15 15 9 0 12 -6 9 -15z m194 4
c-2 -6 -8 -10 -13 -10 -5 0 -11 4 -13 10 -2 6 4 11 13 11 9 0 15 -5 13 -11z
m1230 0 c-2 -6 -8 -10 -13 -10 -5 0 -11 4 -13 10 -2 6 4 11 13 11 9 0 15 -5
13 -11z m-1498 -20 c0 -5 -18 -16 -39 -25 -102 -41 -33 -94 144 -110 60 -5 72
-9 68 -22 -5 -12 -20 -14 -82 -9 -202 16 -281 112 -141 171 35 14 50 13 50 -5z
m406 -15 c23 -10 37 -50 25 -73 -14 -26 -31 -19 -31 14 0 25 -33 55 -62 55
-20 0 -32 16 -23 30 4 6 20 4 43 -6 20 -9 42 -18 48 -20z m824 21 c0 -8 -17
-22 -37 -30 -21 -9 -41 -21 -44 -27 -23 -37 54 -72 186 -84 59 -5 72 -9 68
-22 -5 -12 -20 -14 -82 -9 -201 14 -280 111 -141 171 44 19 50 19 50 1z m416
-31 c27 -26 31 -56 9 -74 -16 -13 -20 -7 -27 35 -2 12 -20 28 -44 40 -22 11
-39 25 -37 31 6 17 68 -4 99 -32z m-1461 -34 c8 -26 -1 -40 -26 -40 -22 0 -34
22 -25 45 8 22 44 18 51 -5z m1230 -10 c0 -20 -5 -25 -25 -25 -28 0 -41 32
-18 46 23 15 43 5 43 -21z m-1365 -42 c0 -5 -7 -8 -15 -8 -17 0 -18 2 -9 25 5
13 8 14 15 3 5 -7 9 -16 9 -20z m1230 0 c0 -5 -7 -8 -15 -8 -17 0 -18 2 -9 25
5 13 8 14 15 3 5 -7 9 -16 9 -20z m-976 -25 c17 -48 21 -140 8 -159 -14 -20
-39 -22 -78 -5 -45 20 -69 45 -59 61 4 7 18 2 40 -14 19 -15 43 -26 54 -26 18
0 21 6 21 48 -1 26 -8 61 -16 77 -8 17 -12 22 -10 13 5 -17 -10 -35 -20 -25
-6 6 28 77 37 77 4 0 14 -21 23 -47z m91 17 c0 -18 -6 -26 -21 -28 -26 -4 -40
24 -23 45 18 21 44 11 44 -17z m1154 -69 c13 -61 2 -115 -26 -125 -18 -7 -95
27 -114 50 -9 11 -9 18 -1 26 7 7 18 3 39 -16 35 -33 69 -34 77 -3 3 12 -2 48
-10 79 -19 66 -12 111 11 68 7 -14 18 -49 24 -79z m76 69 c0 -29 -32 -41 -41
-16 -9 24 4 48 23 44 12 -2 18 -12 18 -28z m-1291 -16 c4 -10 1 -14 -6 -12
-15 5 -23 28 -10 28 5 0 13 -7 16 -16z m1236 1 c0 -8 -4 -15 -9 -15 -5 0 -11
7 -15 15 -3 9 0 15 9 15 8 0 15 -7 15 -15z m-79 -28 c-13 -13 -26 -3 -16 12 3
6 11 8 17 5 6 -4 6 -10 -1 -17z m-1468 -57 c-5 -47 -4 -50 21 -59 29 -12 34
-26 11 -35 -36 -14 -65 20 -65 78 0 44 9 66 26 66 10 0 12 -12 7 -50z m1232 8
c-6 -46 -2 -56 32 -75 20 -11 22 -10 20 15 -2 23 2 27 23 27 20 0 25 -5 25
-24 0 -19 -8 -26 -44 -37 -48 -14 -67 -10 -81 17 -20 36 -8 119 17 119 11 0
13 -9 8 -42z m-1115 17 c-7 -8 -14 -15 -15 -15 -2 0 -5 7 -9 15 -4 10 1 15 16
15 17 0 18 -2 8 -15z m1238 3 c-6 -18 -25 -20 -31 -3 -5 10 0 15 14 15 12 0
19 -5 17 -12z m-1253 -78 c0 -33 -40 -41 -50 -11 -9 28 2 43 28 39 16 -2 22
-10 22 -28z m-67 -203 l3 -68 142 3 142 3 3 68 3 67 134 0 135 0 0 -70 0 -70
145 0 145 0 0 70 0 70 140 0 140 0 0 -70 0 -70 145 0 145 0 0 70 0 70 130 0
130 0 0 -365 c0 -405 -5 -452 -63 -600 -35 -89 -116 -229 -186 -320 -110 -145
-315 -335 -461 -427 -168 -105 -255 -121 -382 -69 -296 124 -659 510 -775 825
-55 149 -56 157 -60 569 l-5 388 124 -3 123 -3 3 -68z"/>
<path d="M1019 2351 c-98 -31 -151 -151 -106 -238 60 -114 212 -126 289 -22
53 71 35 181 -37 231 -44 30 -105 42 -146 29z m19 -28 c-4 -22 -22 -20 -26 1
-2 10 3 16 13 16 10 0 15 -7 13 -17z m52 2 c0 -8 -7 -15 -15 -15 -8 0 -15 7
-15 15 0 8 7 15 15 15 8 0 15 -7 15 -15z m39 6 c16 -10 6 -31 -15 -31 -8 0
-14 9 -14 20 0 22 7 25 29 11z m89 -133 c3 -53 0 -68 -20 -98 -62 -92 -204
-93 -265 -1 -13 19 -23 40 -23 47 0 26 35 13 55 -19 27 -43 61 -59 115 -53 63
6 100 48 100 115 0 37 -6 54 -24 73 -17 20 -21 30 -13 43 8 16 12 14 40 -14
27 -26 32 -39 35 -93z m-100 79 c29 -14 52 -56 52 -96 0 -46 -45 -91 -97 -98
-39 -5 -46 -2 -78 30 -40 40 -47 89 -18 134 32 48 83 59 141 30z m-148 -6 c0
-14 -18 -23 -30 -16 -6 4 -8 11 -5 16 8 12 35 12 35 0z m-20 -40 c0 -14 -18
-23 -30 -16 -6 4 -8 11 -5 16 8 12 35 12 35 0z m0 -46 c0 -8 -9 -15 -20 -15
-11 0 -20 7 -20 15 0 8 9 15 20 15 11 0 20 -7 20 -15z"/>
<path d="M1045 2259 c-38 -11 -55 -34 -55 -75 0 -57 86 -99 120 -59 7 8 15 13
19 11 8 -5 13 53 6 81 -7 32 -52 52 -90 42z m65 -29 c37 -37 20 -93 -30 -105
-34 -8 -80 27 -80 61 0 31 33 64 65 64 14 0 34 -9 45 -20z"/>
<path d="M1520 1626 c-19 -21 -39 -30 -79 -37 -37 -6 -67 -19 -98 -43 -39 -30
-53 -35 -121 -40 -140 -11 -192 -31 -226 -88 -35 -58 -4 -127 71 -160 38 -17
60 -20 122 -16 74 5 75 5 52 -13 -13 -11 -31 -19 -40 -20 -9 0 -2 -5 14 -10
34 -10 78 1 107 28 10 9 18 11 18 5 0 -6 -15 -23 -32 -37 l-33 -27 34 6 c19 4
59 17 89 31 47 22 55 23 69 10 8 -8 25 -17 39 -20 13 -3 35 -7 49 -10 32 -7
31 -2 -1 29 -34 31 -27 68 19 97 26 16 45 19 96 16 57 -3 67 -7 92 -35 51 -57
29 -127 -49 -153 -51 -17 -187 -15 -306 6 -70 12 -118 15 -160 10 -34 -4 -100
-8 -147 -9 -92 -1 -109 6 -133 53 -27 53 -28 69 -6 76 l22 7 -22 15 c-22 16
-85 138 -81 160 2 14 -46 53 -65 53 -8 0 -23 9 -34 20 -26 26 -40 25 -40 -2 0
-19 -2 -20 -17 -6 -10 8 -38 22 -62 31 l-43 16 5 -25 c4 -24 2 -26 -24 -22
-20 3 -29 0 -29 -9 0 -7 6 -13 13 -13 6 -1 -5 -10 -26 -21 -21 -11 -35 -24
-32 -29 3 -5 -6 -17 -20 -26 -16 -10 -25 -26 -25 -41 0 -14 -11 -38 -25 -55
-28 -33 -32 -48 -12 -48 6 0 -1 -12 -16 -25 -28 -25 -26 -29 14 -37 12 -2 14
-9 7 -35 -5 -18 -13 -33 -17 -33 -5 0 -24 19 -42 41 -26 33 -33 53 -37 98 -5
57 -17 85 -33 75 -5 -3 -8 0 -7 7 2 6 -3 14 -10 16 -8 3 -10 -1 -5 -13 6 -17
5 -17 -17 -1 -27 18 -45 22 -36 8 4 -5 3 -17 0 -26 -5 -13 -14 -15 -36 -11
-27 5 -28 4 -22 -22 4 -15 12 -33 18 -41 9 -12 6 -13 -17 -7 -15 3 -27 4 -27
1 0 -14 31 -65 40 -65 16 0 80 -67 80 -84 0 -9 -12 -21 -28 -27 -15 -5 -34
-12 -42 -15 -9 -4 4 -14 38 -28 56 -24 56 -29 2 -53 -35 -15 -35 -15 -10 -23
14 -4 38 -15 54 -23 16 -9 33 -14 38 -11 4 3 8 0 8 -6 0 -7 -9 -14 -20 -17
-11 -3 -20 -9 -20 -14 0 -11 85 -23 106 -15 11 4 26 -2 41 -16 21 -20 28 -21
71 -11 26 5 54 13 62 16 10 4 25 -6 44 -31 26 -35 28 -41 22 -107 -11 -137
-40 -197 -114 -237 -24 -13 -32 -24 -32 -44 0 -19 4 -25 15 -20 9 3 15 0 15
-10 0 -11 6 -13 20 -9 11 3 20 2 20 -3 0 -12 94 -6 119 8 11 5 21 20 23 32 3
26 38 38 38 14 0 -9 4 -16 9 -16 11 0 21 25 21 53 1 20 2 20 11 5 17 -30 29
-20 29 25 1 33 3 38 11 25 17 -31 25 -20 24 37 0 52 6 67 20 45 3 -5 14 -10
23 -10 12 0 13 3 4 12 -7 7 -12 21 -12 33 0 11 -7 31 -16 44 -12 17 -13 26 -5
34 6 6 11 21 11 34 0 27 25 22 52 -11 18 -21 18 -21 18 8 0 28 0 28 48 21 38
-5 45 -4 35 6 -19 19 -16 25 17 27 19 2 30 -2 30 -11 0 -7 12 -29 26 -48 14
-19 35 -51 46 -73 l19 -38 -20 -22 c-11 -12 -52 -37 -90 -55 -43 -21 -73 -43
-80 -58 -15 -33 -14 -46 3 -40 8 3 16 1 18 -5 2 -6 23 -11 46 -11 23 0 42 -3
42 -7 0 -14 59 3 76 21 20 23 36 25 28 4 -8 -19 0 -19 20 1 15 14 16 13 16
-12 0 -27 0 -27 20 -9 11 10 24 32 29 49 l9 31 1 -30 2 -30 14 25 c22 38 19
122 -6 173 -15 31 -20 53 -15 72 l7 28 22 -20 c12 -11 48 -32 80 -46 64 -29
76 -48 84 -138 5 -48 3 -59 -15 -74 -59 -51 -72 -65 -72 -79 0 -9 7 -12 20 -9
11 3 20 1 20 -5 0 -6 9 -8 20 -5 11 3 20 1 20 -4 0 -13 99 -8 112 5 6 6 13 25
17 44 7 33 18 38 54 23 12 -5 16 -3 13 6 -2 8 -7 27 -10 42 -6 25 -5 27 13 18
34 -19 40 -14 29 26 -5 21 -15 44 -20 51 -16 18 -4 24 26 13 31 -12 30 -13 10
28 -17 34 -41 51 -73 51 -16 0 -21 6 -21 28 0 25 -6 30 -40 41 -53 16 -70 44
-77 130 l-6 71 44 0 c37 1 42 3 27 13 -13 11 -5 12 48 11 35 -2 64 -1 64 1 0
3 -12 10 -26 18 -25 13 -25 14 29 26 61 13 144 0 154 -25 3 -8 9 -14 14 -14
14 0 10 52 -6 83 -13 25 -13 32 0 57 52 100 -26 207 -157 217 -64 5 -137 -8
-368 -62 -128 -30 -208 -30 -254 0 -22 15 -27 24 -24 54 4 51 51 72 172 79 87
4 96 3 165 -28 82 -36 115 -36 209 0 50 19 79 18 94 -4 5 -7 8 -6 8 2 0 8 -14
27 -31 44 l-30 31 22 23 c13 14 39 26 65 30 43 6 94 36 94 55 0 5 -9 4 -20 -3
-16 -10 -32 -9 -85 5 -64 17 -67 17 -110 -2 l-44 -19 -3 31 -3 32 -25 -29z
m76 -71 c-27 -19 -61 -35 -75 -35 -23 1 -21 3 10 14 21 7 49 23 64 34 15 12
33 22 39 22 6 0 -11 -16 -38 -35z m34 -20 c-41 -34 -91 -51 -127 -42 -10 3 -5
5 14 6 42 1 72 14 107 45 16 14 33 26 39 26 5 0 -10 -16 -33 -35z m-240 5
c-12 -7 -10 -12 8 -29 13 -11 22 -23 20 -27 -2 -5 17 -14 42 -21 l45 -12 -50
4 c-39 3 -46 2 -31 -7 10 -5 47 -8 84 -6 61 4 64 3 37 -8 -46 -20 -91 -16
-151 12 -106 50 -293 39 -353 -21 -22 -21 -24 -29 -15 -62 22 -88 133 -100
369 -38 139 36 288 54 339 41 38 -9 93 -62 106 -100 9 -27 7 -42 -6 -75 -14
-35 -27 -47 -78 -73 -56 -29 -70 -32 -166 -34 -58 -1 -113 2 -122 7 -22 12
-23 1 -1 -41 10 -20 17 -64 19 -109 l3 -76 -8 70 c-11 108 -29 126 -23 23 6
-108 13 -123 64 -149 24 -12 46 -26 49 -31 13 -21 20 -159 9 -198 -11 -40 -40
-66 -65 -56 -7 2 -16 -2 -19 -10 -3 -7 0 -13 6 -11 6 1 13 -4 15 -10 3 -7 -2
-13 -10 -13 -8 0 -22 -10 -30 -23 -12 -16 -16 -18 -16 -7 -1 9 5 22 12 30 7 8
0 6 -16 -4 -16 -10 -32 -14 -35 -10 -4 4 0 9 8 12 29 10 70 61 70 86 0 45 -21
125 -40 148 -10 13 -41 32 -69 42 -28 10 -54 23 -57 28 -4 6 4 5 16 -2 12 -6
24 -9 27 -7 2 3 -5 10 -16 16 -11 7 -28 24 -36 39 l-16 27 4 -27 c2 -15 0 -25
-4 -22 -5 3 -9 12 -9 21 0 37 -36 127 -65 161 -17 20 -35 46 -40 57 -8 18 -9
18 -12 -7 -6 -39 -47 -74 -95 -82 -48 -8 -125 2 -135 17 -4 6 -1 7 8 2 9 -5 8
-1 -3 11 -9 10 -17 22 -17 27 -2 14 27 62 54 87 23 22 34 24 87 22 35 -2 87 4
122 13 58 16 68 16 203 -4 182 -27 260 -27 322 0 90 38 104 133 28 190 -50 37
-159 32 -357 -16 -188 -47 -276 -54 -332 -29 -70 31 -90 110 -40 156 44 42 69
50 174 55 91 6 102 8 145 39 26 18 49 31 52 28 3 -3 -1 -9 -9 -14z m-693 -82
c-3 -8 -6 -5 -6 6 -1 11 2 17 5 13 3 -3 4 -12 1 -19z m861 15 c-10 -2 -28 -2
-40 0 -13 2 -5 4 17 4 22 1 32 -1 23 -4z m-923 -13 c3 -6 -1 -7 -9 -4 -18 7
-21 14 -7 14 6 0 13 -4 16 -10z m22 -12 c-3 -8 -6 -5 -6 6 -1 11 2 17 5 13 3
-3 4 -12 1 -19z m-149 -58 c-14 -22 -24 -19 -15 5 4 8 11 15 17 15 6 0 6 -7
-2 -20z m266 -45 c21 -44 21 -131 1 -139 -16 -6 -55 13 -55 26 0 3 -3 14 -7
24 -5 13 -3 16 8 12 9 -3 26 3 40 13 l24 19 -28 0 c-16 0 -36 -4 -45 -9 -11
-6 -31 -4 -57 5 -58 20 -68 19 -53 -6 7 -11 18 -20 25 -20 8 0 10 -7 6 -17 -5
-14 -1 -13 19 5 27 25 39 19 53 -26 6 -20 4 -23 -12 -18 -10 3 -31 2 -48 -3
-29 -7 -29 -8 -7 -15 25 -8 30 -26 7 -26 -9 0 -15 -9 -15 -22 0 -19 -2 -20
-11 -8 -8 11 -9 4 -6 -29 6 -51 11 -57 58 -65 35 -6 36 -5 47 33 15 49 15 64
0 59 -11 -4 -44 41 -36 47 8 6 48 25 53 25 3 0 3 -4 0 -10 -3 -5 2 -10 12 -11
16 0 16 -1 -2 -9 l-20 -9 20 -1 20 -1 -20 -9 c-11 -5 -15 -9 -8 -9 8 -1 10 -8
6 -18 -6 -15 -4 -16 9 -5 10 8 8 -3 -8 -34 -15 -30 -21 -56 -18 -70 6 -25 -10
-34 -19 -11 -4 7 -6 6 -6 -4 -1 -9 -8 -22 -16 -29 -12 -10 -15 -10 -15 3 0 10
-6 14 -15 11 -9 -4 -15 0 -15 7 0 11 -2 11 -10 -1 -8 -13 -10 -12 -15 1 -3 9
-5 20 -4 25 3 13 -12 86 -22 105 -5 10 -3 21 4 28 7 7 8 12 2 11 -21 -5 -25 1
-15 20 6 11 15 18 21 15 5 -4 9 -4 9 0 0 3 -11 10 -25 15 -29 11 -31 35 -11
93 19 52 44 77 78 77 15 0 28 4 28 9 0 5 18 2 39 -6 27 -11 45 -26 55 -48z
m75 20 c3 -17 2 -17 -13 -3 -19 20 -21 31 -3 26 6 -3 14 -13 16 -23z m-560
-22 c-3 -21 2 -43 10 -43 5 0 7 9 4 21 -5 17 -2 20 13 17 15 -3 19 -13 20 -51
2 -49 38 -117 76 -141 19 -12 24 -36 8 -36 -5 0 -10 -4 -10 -10 0 -5 11 -10
24 -10 19 0 23 -5 22 -27 -2 -43 -39 -43 -79 -1 -42 44 -97 111 -97 118 0 3
-16 14 -35 24 -19 10 -32 23 -29 27 3 5 -3 6 -12 2 -12 -4 -15 -2 -12 8 3 8
14 13 26 11 17 -3 20 0 15 15 -4 10 -13 23 -21 29 -12 8 -12 12 1 23 13 10 18
8 32 -18 8 -17 20 -31 25 -31 12 0 13 13 1 26 -5 5 -12 19 -16 32 -5 18 -2 22
14 22 12 0 20 -3 20 -7z m268 -19 c-3 -3 -12 -4 -19 -1 -8 3 -5 6 6 6 11 1 17
-2 13 -5z m321 -205 c-3 -8 -7 -3 -11 10 -4 17 -3 21 5 13 5 -5 8 -16 6 -23z
m35 -19 c-3 -12 -8 -19 -11 -16 -5 6 5 36 12 36 2 0 2 -9 -1 -20z m-116 -37
c-3 -10 -5 -4 -5 12 0 17 2 24 5 18 2 -7 2 -21 0 -30z m-217 13 c0 -3 -4 -8
-10 -11 -5 -3 -10 -1 -10 4 0 6 5 11 10 11 6 0 10 -2 10 -4z m117 -18 c-3 -8
-6 -5 -6 6 -1 11 2 17 5 13 3 -3 4 -12 1 -19z m160 -10 c-3 -8 -6 -5 -6 6 -1
11 2 17 5 13 3 -3 4 -12 1 -19z m-29 -23 c-6 -14 -13 -23 -15 -21 -5 5 15 46
22 46 3 0 -1 -11 -7 -25z m-58 -85 c-6 -23 -13 -40 -15 -38 -3 2 0 20 5 39 6
18 11 50 12 69 l1 35 4 -32 c2 -17 -1 -50 -7 -73z m27 58 c-3 -7 -5 -2 -5 12
0 14 2 19 5 13 2 -7 2 -19 0 -25z m-313 -60 c-5 -8 -2 -9 10 -5 11 5 16 3 14
-5 -6 -16 -20 -19 -38 -8 -13 9 -13 11 0 20 20 13 23 12 14 -2z m253 -10 c-3
-8 -6 -5 -6 6 -1 11 2 17 5 13 3 -3 4 -12 1 -19z m-239 -38 l37 -8 -36 -1
c-27 -1 -41 5 -60 26 -22 25 -22 26 -1 9 12 -11 39 -22 60 -26z m728 9 c4 -8
0 -9 -15 -4 -15 5 -19 3 -16 -8 3 -7 16 -13 28 -13 21 1 22 -3 23 -79 0 -44 5
-93 12 -108 7 -16 12 -32 12 -37 0 -20 -63 -79 -90 -85 -15 -3 -31 -12 -34
-20 -3 -9 0 -12 10 -8 17 6 19 -8 2 -25 -20 -20 -40 -15 -33 8 8 27 -10 25
-29 -2 -9 -12 -19 -19 -23 -15 -3 4 -1 13 5 19 21 21 13 31 -12 14 -15 -10
-27 -12 -31 -6 -3 6 -1 10 4 10 6 0 11 5 11 10 0 7 -6 7 -20 0 -14 -8 -20 -8
-20 0 0 6 21 21 48 32 141 63 153 93 72 198 -15 19 -30 44 -33 55 -7 19 -6 19
7 2 14 -18 15 -17 18 10 2 21 9 29 26 31 16 2 22 8 18 18 -7 17 49 20 60 3z
m-435 -89 c29 -16 24 -41 -30 -154 -35 -75 -58 -110 -84 -130 -21 -16 -41 -25
-48 -20 -8 5 -9 3 -5 -5 5 -7 15 -10 23 -7 9 4 17 -1 20 -14 5 -19 6 -19 23 3
l18 22 -5 -28 c-6 -31 -24 -43 -50 -33 -15 6 -15 8 -3 16 8 5 11 13 6 17 -4 4
-15 -1 -25 -13 -9 -11 -22 -19 -29 -16 -9 3 -8 8 5 18 16 12 16 13 2 14 -9 0
-22 -7 -29 -15 -7 -8 -17 -12 -23 -8 -6 4 -4 11 7 19 10 7 13 15 7 18 -5 4
-12 2 -16 -4 -8 -12 -25 -13 -25 -2 0 5 17 16 39 24 35 14 41 22 60 80 12 36
24 89 27 119 3 30 8 65 11 79 l5 25 9 -22 c9 -26 29 -31 29 -8 0 28 47 43 81
25z m76 -12 c-3 -8 -6 -5 -6 6 -1 11 2 17 5 13 3 -3 4 -12 1 -19z m410 -8
c-11 -28 -7 -55 17 -125 4 -11 -5 2 -19 29 -27 49 -28 84 -3 113 16 20 17 16
5 -17z m-447 5 c0 -8 -2 -15 -4 -15 -2 0 -6 7 -10 15 -3 8 -1 15 4 15 6 0 10
-7 10 -15z m753 -328 c-6 -31 -30 -32 -25 -1 2 17 0 17 -17 -4 -12 -14 -25
-20 -36 -16 -14 6 -12 10 12 26 15 10 36 17 46 14 9 -2 17 1 17 7 0 6 2 8 4 6
2 -2 2 -17 -1 -32z"/>
<path d="M6732 2395 c-228 -50 -337 -279 -233 -490 62 -125 166 -179 341 -178
94 0 144 9 228 40 l42 16 0 88 c0 76 3 92 20 109 11 11 27 20 35 20 8 0 15 5
15 10 0 6 -43 10 -109 10 -60 0 -116 3 -125 6 -10 4 -16 1 -16 -9 0 -8 12 -18
27 -22 39 -9 43 -19 43 -112 l0 -82 -32 -18 c-22 -11 -56 -17 -98 -18 -58 0
-73 4 -124 35 -105 64 -151 167 -144 324 3 81 7 97 33 136 17 24 50 58 74 75
40 28 48 30 139 30 88 0 102 -3 144 -27 43 -26 88 -90 88 -126 0 -7 5 -12 10
-12 7 0 10 32 8 88 l-3 87 -80 17 c-97 20 -199 21 -283 3z"/>
<path d="M2380 2387 c0 -7 15 -19 33 -27 l32 -15 0 -280 0 -280 -32 -14 c-18
-8 -33 -18 -33 -23 0 -4 45 -8 100 -8 55 0 100 4 100 8 0 4 -16 14 -35 21 -22
8 -37 20 -39 34 -3 12 -7 125 -10 252 l-6 230 28 -30 c44 -46 157 -170 252
-275 47 -52 108 -119 136 -150 28 -30 59 -65 70 -77 10 -13 28 -23 39 -23 20
0 20 5 20 288 0 158 3 299 7 314 6 19 17 28 38 33 16 4 30 13 30 20 0 11 -22
13 -100 12 -72 -2 -100 -5 -100 -14 0 -7 11 -13 24 -13 50 0 56 -26 56 -247 0
-112 -3 -203 -7 -202 -5 0 -67 66 -139 147 -72 81 -168 188 -213 238 l-82 91
-85 1 c-58 0 -84 -3 -84 -11z"/>
<path d="M3770 2383 c0 -6 13 -14 29 -18 16 -3 32 -14 36 -23 3 -9 6 -136 6
-282 -1 -262 -1 -265 -23 -284 -28 -22 -92 -17 -119 11 -17 17 -73 133 -174
363 -88 201 -105 235 -116 235 -7 0 -22 -22 -32 -50 -93 -232 -221 -523 -238
-541 -12 -13 -34 -26 -50 -29 -62 -14 -24 -25 86 -25 70 0 115 4 115 10 0 6
-9 10 -19 10 -58 0 -65 36 -27 135 l23 60 109 3 109 3 35 -87 c33 -84 34 -87
15 -100 -10 -8 -27 -14 -37 -14 -10 0 -18 -4 -18 -10 0 -6 88 -10 245 -10 135
0 245 4 245 8 0 4 -16 14 -35 21 -22 8 -37 20 -39 34 -10 45 -15 467 -7 467 5
0 69 -66 142 -147 73 -82 160 -177 194 -213 33 -36 83 -92 112 -123 28 -31 58
-57 67 -57 13 0 15 41 18 306 3 289 4 306 22 320 24 17 76 18 109 3 18 -8 47
-58 111 -193 l87 -181 -3 -100 -3 -100 -32 -15 c-18 -8 -33 -18 -33 -22 0 -5
61 -8 135 -8 86 0 135 4 135 10 0 6 -14 13 -30 17 -42 8 -50 28 -50 124 l0 83
81 150 c129 239 126 234 159 241 16 4 30 12 30 18 0 16 -203 13 -208 -2 -2 -6
7 -11 20 -11 29 0 48 -17 48 -42 0 -10 -32 -82 -71 -160 l-71 -143 -28 59
c-16 32 -47 102 -70 154 -47 106 -46 123 8 132 19 3 28 9 24 15 -4 6 -100 10
-249 10 -192 1 -243 -2 -243 -12 0 -7 8 -13 18 -13 10 0 28 -7 40 -16 22 -15
22 -19 22 -232 l0 -217 -23 26 c-12 14 -110 125 -218 245 l-195 219 -87 0
c-61 0 -87 -3 -87 -12z m-350 -270 c23 -56 42 -105 41 -108 -1 -9 -171 -9
-172 0 -4 16 75 225 81 218 5 -4 27 -54 50 -110z"/>
<path d="M5715 2391 c-3 -5 12 -18 32 -28 l38 -18 3 -268 c1 -169 -1 -275 -8
-287 -6 -10 -26 -22 -45 -26 -66 -12 -65 -14 -240 376 -100 222 -114 250 -122
250 -5 0 -26 -42 -48 -92 -21 -51 -51 -124 -68 -163 -16 -38 -49 -119 -73
-179 -54 -137 -84 -182 -124 -191 -62 -14 -26 -25 80 -25 67 0 110 4 110 10 0
6 -8 10 -18 10 -10 0 -27 6 -37 14 -19 14 -19 16 8 100 l28 87 111 -3 111 -3
28 -70 c36 -87 34 -107 -9 -120 -65 -19 -25 -28 114 -27 76 1 183 2 237 2 95
0 127 12 67 25 -17 4 -34 14 -39 23 -5 9 -12 125 -16 257 l-7 240 25 -25 c29
-30 123 -133 232 -255 44 -49 108 -119 142 -155 34 -36 72 -78 83 -93 12 -15
30 -27 41 -27 18 0 19 10 19 288 0 158 3 297 6 309 4 14 20 27 40 35 19 7 34
17 34 24 0 9 -28 12 -100 11 -66 -1 -100 -6 -100 -13 0 -6 14 -14 30 -18 20
-4 34 -14 40 -31 6 -15 10 -116 10 -227 l0 -200 -68 73 c-38 41 -137 150 -220
243 l-151 169 -85 3 c-47 2 -87 0 -91 -5z m-285 -387 c0 -2 -41 -4 -90 -6 -56
-2 -90 1 -90 7 0 6 16 53 35 105 20 52 38 102 41 110 3 8 27 -35 55 -99 27
-63 49 -116 49 -117z"/>
<path d="M2357 1523 c-10 -9 -9 -93 1 -93 4 0 14 15 22 33 13 29 20 32 63 35
l47 3 0 -145 c0 -151 -4 -176 -25 -176 -8 0 -17 -4 -20 -10 -4 -6 22 -10 69
-10 44 0 76 4 76 10 0 6 -6 10 -14 10 -22 0 -26 24 -26 176 l0 145 48 -3 c42
-3 49 -6 62 -35 21 -46 32 -41 28 15 l-3 47 -161 3 c-88 1 -164 -1 -167 -5z"/>
<path d="M2710 1521 c0 -5 9 -11 20 -14 19 -5 20 -14 20 -162 0 -148 -1 -157
-20 -162 -11 -3 -20 -9 -20 -14 0 -6 59 -8 137 -7 l138 3 3 49 c3 33 0 46 -7
42 -6 -4 -11 -13 -11 -21 0 -24 -50 -55 -89 -55 -55 0 -62 10 -68 89 l-5 72
43 -3 c34 -2 46 -8 54 -25 17 -38 25 -26 25 37 0 63 -8 75 -25 38 -8 -18 -20
-24 -54 -26 -37 -3 -43 -1 -37 13 3 9 6 43 6 76 l0 59 35 0 c47 0 84 -19 91
-47 10 -39 25 -26 22 20 l-3 42 -127 3 c-73 1 -128 -1 -128 -7z"/>
<path d="M3155 1522 c-97 -32 -147 -120 -124 -220 22 -98 85 -144 200 -144 94
0 159 30 159 74 l0 30 -47 -42 c-46 -41 -50 -42 -105 -38 -38 3 -65 11 -79 24
-55 48 -75 165 -41 233 26 52 61 73 122 73 60 0 96 -21 121 -70 21 -40 25 -35
21 22 -4 43 -6 46 -40 56 -40 11 -155 12 -187 2z"/>
<path d="M3420 1521 c0 -5 9 -11 20 -14 19 -5 20 -14 20 -166 0 -154 -1 -161
-20 -161 -11 0 -20 -4 -20 -10 0 -6 32 -10 75 -10 71 0 99 11 55 23 -18 5 -20
14 -20 80 l0 75 68 5 c37 3 79 6 95 6 l27 1 0 -85 c0 -78 -2 -85 -20 -85 -11
0 -20 -4 -20 -10 0 -6 32 -10 75 -10 71 0 99 11 55 23 -19 5 -20 14 -20 162 0
148 1 157 20 162 44 12 16 23 -55 23 -71 0 -99 -11 -55 -23 17 -4 20 -14 20
-71 l0 -66 -95 0 -95 0 0 66 c0 57 3 67 20 71 44 12 16 23 -55 23 -41 0 -75
-4 -75 -9z"/>
<path d="M3900 1522 c0 -4 9 -13 20 -20 18 -11 20 -23 20 -157 0 -137 -1 -145
-22 -159 -30 -22 -19 -28 43 -23 42 3 49 5 31 11 -30 11 -33 31 -30 168 l3
117 135 -149 c74 -83 141 -150 148 -150 9 0 12 41 12 171 0 162 1 171 20 176
39 10 19 23 -35 23 -30 0 -55 -4 -55 -10 0 -5 6 -10 14 -10 22 0 24 -7 31
-135 l6 -120 -43 45 c-61 64 -148 160 -180 198 -23 27 -33 32 -72 32 -25 0
-46 -3 -46 -8z"/>
<path d="M4431 1519 c-104 -41 -149 -156 -101 -253 75 -150 322 -145 379 7 14
36 14 98 0 134 -14 38 -67 92 -106 109 -36 16 -136 18 -172 3z m142 -31 c90
-64 97 -253 10 -299 -34 -18 -91 -14 -122 8 -67 49 -95 198 -51 270 31 52 104
62 163 21z"/>
<path d="M4760 1520 c0 -5 6 -10 14 -10 22 0 26 -24 26 -165 0 -141 -4 -165
-26 -165 -8 0 -14 -4 -14 -10 0 -6 53 -10 139 -10 l139 0 7 46 c8 55 2 66 -17
28 -7 -16 -24 -34 -38 -41 -32 -16 -102 -17 -118 -1 -8 8 -12 57 -12 155 0
132 2 144 20 155 34 22 23 28 -50 28 -40 0 -70 -4 -70 -10z"/>
<path d="M5165 1512 c-48 -23 -69 -45 -90 -95 -54 -130 41 -259 194 -259 91 0
154 39 186 115 35 83 7 176 -68 224 -56 36 -162 43 -222 15z m171 -33 c37 -35
55 -85 56 -152 1 -75 -12 -110 -48 -134 -84 -55 -199 25 -205 143 -4 82 1 103
31 138 45 50 115 53 166 5z"/>
<path d="M5634 1517 c-84 -32 -132 -109 -121 -192 19 -133 124 -193 280 -160
40 8 73 15 75 15 1 0 2 22 2 50 0 38 5 54 22 70 l22 20 -75 -1 c-61 0 -70 -2
-51 -11 18 -9 22 -19 22 -58 0 -58 -12 -70 -69 -70 -98 0 -157 78 -149 197 4
60 7 68 41 99 32 30 43 34 89 34 63 0 114 -27 124 -65 11 -42 25 -28 22 22 -3
41 -6 48 -28 54 -40 11 -172 8 -206 -4z"/>
<path d="M5940 1520 c0 -5 6 -10 14 -10 23 0 26 -25 25 -168 -1 -144 -4 -162
-24 -162 -8 0 -17 -4 -20 -10 -4 -6 22 -10 69 -10 72 0 100 11 56 23 -19 5
-20 14 -20 150 0 153 4 177 26 177 8 0 14 5 14 10 0 6 -30 10 -70 10 -40 0
-70 -4 -70 -10z"/>
<path d="M6202 1509 c-58 -29 -94 -78 -100 -137 -9 -94 30 -166 108 -200 89
-38 250 0 257 61 2 15 -1 27 -7 27 -5 0 -10 -4 -10 -10 0 -5 -19 -23 -42 -40
-76 -55 -167 -36 -206 44 -66 137 -10 262 116 257 56 -2 97 -26 117 -68 9 -18
18 -33 20 -33 3 0 5 22 5 50 0 48 -1 49 -37 59 -66 19 -173 14 -221 -10z"/>
<path d="M6908 1512 c22 -17 23 -24 25 -165 2 -147 2 -148 -23 -167 l-25 -20
146 0 147 0 4 43 c5 43 -1 64 -10 38 -12 -35 -51 -61 -92 -61 -79 0 -80 3 -80
160 0 146 4 170 26 170 8 0 14 5 14 10 0 6 -32 10 -77 10 -77 0 -78 -1 -55
-18z"/>
<path d="M6594 1353 c-58 -139 -74 -169 -92 -171 -46 -7 -20 -22 38 -22 59 0
80 12 40 23 -20 5 -20 6 -2 54 l18 48 57 3 57 3 20 -46 c21 -48 19 -65 -6 -65
-8 0 -14 -4 -14 -10 0 -6 33 -10 80 -10 47 0 80 4 80 10 0 6 -8 10 -19 10 -20
0 -24 7 -89 155 -62 141 -84 185 -91 185 -4 0 -39 -75 -77 -167z m84 19 c12
-32 22 -61 22 -65 0 -4 -23 -7 -51 -7 -37 0 -50 4 -47 13 3 6 13 36 23 65 11
28 21 52 25 52 3 0 15 -26 28 -58z"/>
<path d="M5560 959 c-59 -24 -100 -85 -100 -146 0 -72 39 -112 177 -181 78
-40 107 -75 99 -122 -17 -105 -180 -103 -236 3 -14 26 -31 47 -37 47 -18 0
-18 -114 0 -128 6 -5 46 -15 89 -22 133 -22 234 23 259 113 23 86 -29 156
-170 231 -109 57 -137 110 -86 161 20 21 34 25 79 25 47 0 60 -4 90 -30 19
-17 38 -44 41 -60 4 -17 13 -30 21 -30 10 0 14 14 14 58 0 31 -4 64 -10 72
-11 18 -192 25 -230 9z"/>
<path d="M2380 950 c0 -5 8 -10 19 -10 10 0 23 -6 29 -12 6 -8 12 -91 14 -193
5 -205 11 -229 81 -281 111 -83 308 -58 362 46 20 40 35 165 35 305 0 124 5
135 60 135 20 0 41 -5 48 -12 9 -9 12 -76 12 -238 0 -234 -3 -250 -42 -250
-10 0 -18 -6 -18 -12 0 -16 153 -15 158 1 2 6 -5 11 -16 11 -11 0 -24 6 -30
13 -12 14 -23 409 -12 405 8 -3 56 -55 240 -258 47 -51 105 -116 129 -142 75
-81 75 -79 76 203 0 259 3 279 46 279 11 0 19 5 19 10 0 6 -35 10 -85 10 -84
0 -113 -12 -55 -23 39 -8 41 -20 38 -215 l-3 -163 -147 163 c-81 90 -161 180
-179 201 l-32 37 -158 0 c-99 0 -159 -4 -159 -10 0 -5 9 -10 19 -10 46 0 51
-20 51 -203 0 -148 -3 -178 -20 -214 -32 -72 -115 -107 -199 -84 -103 27 -120
71 -121 302 0 181 4 199 42 199 10 0 18 5 18 10 0 6 -43 10 -110 10 -67 0
-110 -4 -110 -10z"/>
<path d="M3630 950 c0 -5 9 -10 20 -10 35 0 40 -31 40 -257 0 -227 -3 -243
-42 -243 -10 0 -18 -6 -18 -12 0 -10 30 -13 110 -15 89 -1 110 1 110 13 0 8
-8 14 -18 14 -39 0 -42 16 -42 250 0 162 3 229 12 238 18 18 82 15 101 -5 15
-18 36 -61 172 -353 40 -85 78 -155 85 -155 7 0 54 101 111 239 55 132 106
250 114 263 12 18 24 23 58 23 24 0 48 -5 55 -12 9 -9 12 -76 12 -238 0 -234
-3 -250 -42 -250 -10 0 -18 -6 -18 -12 0 -10 48 -13 204 -14 l205 -1 5 36 c16
110 8 130 -27 66 -31 -55 -77 -77 -149 -72 -31 3 -61 8 -67 12 -7 4 -11 49
-11 116 l0 109 51 0 c61 0 85 -11 93 -45 13 -52 26 -23 26 60 0 69 -3 85 -15
85 -8 0 -15 -9 -15 -19 0 -30 -39 -51 -92 -51 l-48 0 0 114 0 113 73 -4 c83
-6 113 -21 122 -62 3 -16 13 -32 21 -35 11 -4 14 7 14 59 l0 65 -286 0 c-187
0 -283 -3 -279 -10 3 -5 15 -10 25 -10 36 0 31 -37 -31 -211 -33 -96 -64 -180
-68 -187 -5 -8 -32 42 -70 130 -35 79 -72 164 -84 189 -25 57 -18 79 23 79 16
0 30 5 30 10 0 6 -85 10 -235 10 -150 0 -235 -4 -235 -10z"/>
<path d="M4910 950 c0 -5 9 -10 20 -10 35 0 40 -31 40 -257 0 -227 -3 -243
-42 -243 -10 0 -18 -6 -18 -13 0 -9 27 -13 110 -13 61 0 110 3 110 7 0 5 -12
14 -27 21 -28 13 -28 14 -31 121 -2 97 -1 107 15 107 32 0 45 -16 97 -116 35
-67 61 -105 84 -121 36 -24 111 -39 139 -28 15 6 14 9 -12 22 -16 9 -36 23
-43 32 -20 26 -122 208 -122 219 0 6 15 19 34 30 95 56 81 213 -22 242 -48 13
-332 13 -332 0z m264 -31 c51 -40 70 -111 46 -173 -12 -33 -62 -58 -108 -54
l-37 3 -3 123 -3 122 39 0 c25 0 49 -8 66 -21z"/>
<path d="M5845 950 c3 -5 12 -10 20 -10 7 0 21 -7 29 -16 14 -13 16 -49 16
-233 0 -227 -3 -246 -44 -253 -11 -1 -18 -7 -15 -13 5 -13 220 -13 216 0 -2 5
-14 12 -28 15 -23 6 -24 10 -31 120 -9 134 0 349 14 368 6 6 19 12 29 12 11 0
19 5 19 10 0 6 -45 10 -116 10 -74 0 -113 -4 -109 -10z"/>
<path d="M6116 938 c-12 -45 -7 -128 8 -128 8 0 17 15 20 34 12 62 34 79 107
80 l64 1 3 -205 c4 -251 1 -269 -39 -277 -16 -3 -29 -11 -29 -17 0 -8 36 -11
115 -11 85 0 115 3 115 13 0 6 -11 12 -25 12 -42 0 -46 24 -43 262 l3 223 24
3 c13 2 44 1 68 -3 35 -5 48 -13 64 -38 10 -18 19 -42 19 -54 0 -15 6 -23 16
-23 14 0 15 10 11 73 -4 39 -6 73 -7 75 0 1 -110 2 -244 2 l-244 0 -6 -22z"/>
<path d="M6640 950 c0 -5 11 -10 23 -10 35 0 48 -20 126 -184 63 -131 71 -155
71 -206 0 -74 -13 -108 -41 -112 -12 -2 -24 -8 -26 -15 -3 -9 25 -11 106 -8
61 2 111 8 111 12 1 4 -9 9 -20 11 -27 5 -40 40 -40 110 0 46 7 69 35 122 19
36 54 101 76 145 47 91 74 125 101 125 10 0 18 5 18 10 0 6 -35 10 -85 10 -47
0 -85 -4 -85 -9 0 -5 10 -11 22 -13 13 -2 24 -11 27 -23 3 -18 -107 -255 -119
-255 -9 1 -105 231 -105 253 0 17 7 23 28 25 15 2 27 8 27 13 0 5 -54 9 -125
9 -77 0 -125 -4 -125 -10z"/>
</g>
</svg>
