<?xml version="1.0" standalone="no"?>
<!DOCTYPE svg PUBLIC "-//W3C//DTD SVG 20010904//EN"
 "http://www.w3.org/TR/2001/REC-SVG-20010904/DTD/svg10.dtd">
<svg version="1.0" xmlns="http://www.w3.org/2000/svg"
 width="452.000000pt" height="92.000000pt" viewBox="0 0 452.000000 92.000000"
 preserveAspectRatio="xMidYMid meet">

<g transform="translate(0.000000,92.000000) scale(0.100000,-0.100000)"
fill="#000000" stroke="none">
<path d="M4226 874 c-10 -27 -7 -212 4 -219 20 -12 223 -6 232 7 13 21 10 202
-4 216 -8 8 -49 12 -119 12 -88 0 -108 -3 -113 -16z m211 -106 l-2 -93 -90 0
-90 0 -3 93 -3 92 95 0 94 0 -1 -92z"/>
<path d="M4287 824 c-15 -15 8 -24 59 -24 41 0 54 4 54 15 0 11 -13 15 -53 15
-30 0 -57 -3 -60 -6z"/>
<path d="M4282 768 c3 -8 27 -14 61 -16 46 -2 57 0 57 13 0 12 -13 15 -61 15
-44 0 -60 -3 -57 -12z"/>
<path d="M4287 734 c-15 -15 -6 -24 24 -24 20 0 29 4 27 13 -5 14 -40 21 -51
11z"/>
<path d="M4166 823 c-12 -12 -7 -218 6 -231 8 -8 49 -12 120 -12 89 0 108 3
108 15 0 12 -18 15 -105 15 l-105 0 0 104 c0 96 -7 126 -24 109z"/>
<path d="M100 486 l0 -266 50 0 50 0 2 180 3 180 124 -180 123 -180 44 0 44 0
0 265 0 265 -45 0 -45 0 0 -180 c0 -99 -3 -180 -7 -180 -5 0 -30 33 -56 73
-26 39 -81 119 -121 177 l-73 105 -47 3 -46 3 0 -265z"/>
<path d="M630 710 l0 -40 80 0 80 0 0 -225 0 -225 50 0 50 0 0 225 0 225 80 0
80 0 0 40 0 40 -210 0 -210 0 0 -40z"/>
<path d="M1139 593 c-2 -277 2 -294 79 -348 35 -24 55 -30 112 -33 38 -2 84 1
105 8 52 17 113 75 125 118 5 21 10 121 10 225 l0 187 -50 0 -50 0 0 -194 c0
-180 -1 -195 -21 -219 -38 -49 -134 -57 -179 -15 -35 33 -40 62 -40 249 l0
179 -45 0 -45 0 -1 -157z"/>
<path d="M1680 495 c0 -140 -1 -258 -2 -262 -2 -5 18 -9 44 -11 l48 -3 2 182
3 183 71 -180 72 -179 38 0 37 0 71 174 71 174 3 -176 2 -177 50 0 50 0 0 265
0 266 -62 -3 -62 -3 -78 -189 c-42 -104 -79 -191 -81 -193 -2 -2 -40 84 -83
192 l-79 195 -57 0 -58 0 0 -255z"/>
<path d="M3050 485 l0 -265 50 0 50 0 0 68 c0 62 10 92 31 92 4 0 33 -36 64
-80 40 -57 63 -80 78 -81 12 0 32 -2 44 -3 47 -5 43 11 -28 109 -39 54 -73
105 -76 112 -3 7 30 51 72 98 l77 85 -53 0 -54 0 -77 -82 -77 -83 -1 148 0
147 -50 0 -50 0 0 -265z"/>
<path d="M3920 665 c0 -44 -1 -45 -31 -45 -29 0 -30 -2 -27 -37 3 -33 7 -38
31 -41 l27 -3 0 -130 c0 -127 0 -129 28 -160 24 -27 37 -33 84 -37 62 -5 71 2
62 47 -5 26 -11 31 -35 31 -41 0 -49 24 -49 144 l0 106 40 0 40 0 0 40 0 40
-40 0 -40 0 0 45 0 45 -45 0 -45 0 0 -45z"/>
<path d="M2407 599 c-21 -11 -47 -34 -57 -52 l-20 -32 40 -8 c36 -7 44 -5 71
17 35 29 74 33 107 10 22 -15 30 -58 13 -68 -5 -3 -41 -10 -80 -16 -114 -16
-161 -50 -161 -118 0 -76 52 -122 139 -122 42 0 56 5 86 31 l36 32 -5 -27 c-5
-25 -3 -26 46 -26 l50 0 -4 154 c-3 137 -5 158 -24 183 -46 63 -159 83 -237
42z m163 -234 c0 -50 -36 -85 -89 -85 -64 0 -93 47 -52 84 16 14 71 29 129 35
7 1 12 -12 12 -34z"/>
<path d="M2760 420 l0 -200 50 0 50 0 0 134 c0 162 9 180 84 181 l46 0 0 43
c0 41 -1 42 -35 42 -24 0 -45 -9 -70 -31 l-35 -31 0 31 c0 30 -1 31 -45 31
l-45 0 0 -200z"/>
<path d="M3537 599 c-20 -11 -49 -38 -65 -61 -24 -37 -27 -51 -27 -122 0 -94
15 -130 71 -173 51 -38 151 -45 213 -14 47 25 88 80 68 93 -24 15 -70 8 -99
-17 -41 -34 -89 -33 -127 2 -16 16 -32 40 -35 56 l-6 27 140 0 140 0 0 48 c0
69 -34 130 -90 159 -55 29 -130 30 -183 2z m152 -75 c19 -16 31 -35 31 -50 0
-25 0 -25 -92 -22 -87 3 -93 4 -90 23 5 31 58 75 91 75 17 0 43 -11 60 -26z"/>
</g>
</svg>
